<svg width="32" height="16" viewBox="0 0 32 16" fill="none" xmlns="http://www.w3.org/2000/svg">
  <path fill-rule="evenodd" clip-rule="evenodd" d="M2.46065 8.32259H3.93465V0.666595H2.46131L2.46065 8.32259ZM4.39931 8.32259H4.85598V0.666595H4.39998L4.39931 8.32259ZM5.25331 8.32259H6.07131V0.666595H5.25331V8.32259ZM6.85931 8.32259H7.31665V0.666595H6.85931V8.32259ZM7.51465 8.32259H7.86665V0.666595H7.51465V8.32259ZM1.33998 8.32259H1.79731V0.666595H1.34065L1.33998 8.32259ZM0.333313 8.32259H1.15065V0.666595H0.333313V8.32259ZM10.308 8.32259H11.7813V0.666595H10.308V8.32259ZM12.2453 8.32259H12.7026V0.666595H12.2453V8.32259ZM13.1 8.32259H13.918V0.666595H13.1V8.32259ZM14.7066 8.32259H15.1626V0.666595H14.706L14.7066 8.32259ZM15.3613 8.32259H15.7133V0.666595H15.3613V8.32259ZM9.18665 8.32259H9.64331V0.666595H9.18665V8.32259ZM8.17998 8.32259H8.99665V0.666595H8.17998V8.32259ZM16.292 8.32259H17.1086V0.666595H16.292V8.32259ZM17.898 8.32259H18.3533V0.666595H17.898V8.32259ZM18.5533 8.32259H18.9053V0.666595H18.5526L18.5533 8.32259ZM20.2253 8.32259H20.6813V0.666595H20.2253V8.32259ZM19.218 8.32259H20.036V0.666595H19.218V8.32259ZM21.2893 8.32259H21.7453V0.666595H21.2893V8.32259ZM21.944 8.32259H22.2973V0.666595H21.944V8.32259ZM23.6167 8.32259H24.0733V0.666595H23.6167V8.32259ZM22.6087 8.32259H23.4266V0.666595H22.6087V8.32259ZM24.472 8.32259H25.9446V0.666595H24.4713L24.472 8.32259ZM26.4086 8.32259H26.8653V0.666595H26.4086V8.32259ZM27.264 8.32259H28.082V0.666595H27.264V8.32259ZM28.8693 8.32259H29.3266V0.666595H28.8693V8.32259ZM29.5247 8.32259H29.876V0.666595H29.5247V8.32259ZM30.456 8.32259H31.2726V0.666595H30.456V8.32259Z" fill="#221E1F" />
  <path fill-rule="evenodd" clip-rule="evenodd" d="M1.17067 14.5413C1.296 14.5639 1.482 14.5706 1.71067 14.5706C2.37733 14.5706 2.992 14.3266 2.992 13.6006C2.992 12.9193 2.40733 12.6379 1.70333 12.6379H1.17V14.5413H1.17067ZM1.17067 12.1493H1.75533C2.43667 12.1493 2.83667 11.7939 2.83667 11.3126C2.83667 10.7273 2.392 10.4979 1.74067 10.4979C1.44467 10.4979 1.274 10.5199 1.17067 10.5419V12.1486V12.1493ZM0.526001 10.1053C0.807334 10.0459 1.25133 10.0019 1.70333 10.0019C2.348 10.0019 2.76267 10.1126 3.074 10.3646C3.33267 10.5579 3.48867 10.8533 3.48867 11.2466C3.48867 11.7273 3.17 12.1493 2.644 12.3419V12.3566C3.11733 12.4746 3.67333 12.8679 3.67333 13.6086C3.67333 14.0379 3.50333 14.3639 3.25133 14.6079C2.90333 14.9266 2.34067 15.0746 1.526 15.0746C1.082 15.0746 0.741334 15.0453 0.526001 15.0153V10.1053ZM6.26733 12.5639C6.26733 13.6306 6.84467 14.5859 7.85933 14.5859C8.88133 14.5859 9.45933 13.6459 9.45933 12.5126C9.45933 11.5199 8.94067 10.4833 7.86667 10.4833C6.8 10.4833 6.26733 11.4679 6.26733 12.5633V12.5639ZM10.1407 12.4833C10.1407 14.2006 9.096 15.1113 7.82267 15.1113C6.50467 15.1113 5.578 14.0899 5.578 12.5793C5.578 10.9939 6.564 9.95726 7.89667 9.95726C9.25933 9.95726 10.1407 11.0019 10.1407 12.4826V12.4833ZM12.3127 10.0386H12.956V14.4893H15.0893V15.0306H12.3127V10.0386ZM19.7267 12.6899H17.7867V14.4893H19.9493V15.0299H17.142V10.0386H19.838V10.5786H17.7867V12.1573H19.7267V12.6899ZM23.1867 10.5866H21.6687V10.0386H25.364V10.5866H23.8387V15.0299H23.1867V10.5866ZM27.4467 12.5639C27.4467 13.6306 28.024 14.5859 29.0387 14.5859C30.0607 14.5859 30.638 13.6459 30.638 12.5126C30.638 11.5199 30.12 10.4833 29.046 10.4833C27.9793 10.4833 27.446 11.4679 27.446 12.5633L27.4467 12.5639ZM31.3193 12.4833C31.3193 14.2006 30.2753 15.1113 29.002 15.1113C27.6833 15.1113 26.7573 14.0899 26.7573 12.5793C26.7573 10.9939 27.7427 9.95726 29.076 9.95726C30.438 9.95726 31.3193 11.0019 31.3193 12.4826" fill="#231F20" />
</svg>
