<svg width="27" height="20" fill="none" xmlns="http://www.w3.org/2000/svg">
  <path d="M2 .667h23.333c.92 0 1.667.746 1.667 1.667v15.833c0 .92-.747 1.667-1.667 1.667H2c-.92 0-1.667-.747-1.667-1.666V2.334C.333 1.414 1.08.667 2 .667z" fill="#26A6D1" />
  <path d="M4.633 7.333L2 13.16h3.152l.391-.929h.894l.39.93h3.47v-.71l.31.71h1.795l.309-.725v.724h7.216l.878-.905.822.905 3.706.008-2.641-2.905 2.641-2.93h-3.649l-.854.888-.796-.888h-7.85l-.675 1.504-.69-1.504H7.673v.685l-.35-.685h-2.69zm.61.827H6.78l1.747 3.952V8.16h1.683l1.35 2.834 1.243-2.834h1.675v4.182h-1.02l-.008-3.277-1.486 3.277h-.912L9.559 9.065v3.277H7.462l-.398-.938H4.917l-.397.937H3.397l1.846-4.18zm10.167 0h4.144l1.268 1.37 1.308-1.37h1.268l-1.926 2.102 1.926 2.077h-1.325l-1.268-1.385-1.315 1.385h-4.08V8.16zm-9.42.708l-.707 1.67h1.415l-.707-1.67zm10.443.158v.763h2.261v.851h-2.26v.834h2.535l1.178-1.228-1.128-1.22h-2.586z" fill="#fff" />
</svg>
