<svg width="38" height="16" viewBox="0 0 38 16" fill="none" xmlns="http://www.w3.org/2000/svg">
  <g clip-path="url(#clip0)">
    <path d="M10.761 -1.52588e-05H6.95145C5.26815 0.079572 3.89222 0.757543 3.49493 2.15562C3.28778 2.88475 3.17377 3.68553 3.01178 4.44136C2.18828 8.28449 1.45807 12.2336 0.670349 16H30.3288C32.6217 16 34.1961 15.5155 34.6215 13.6956C34.8191 12.8502 35.0085 11.8928 35.1976 10.964C35.9347 7.34265 36.6725 3.72154 37.4276 -1.52588e-05H10.761Z" fill="#822124" />
    <path d="M10.4637 5.68659C10.623 5.57684 10.8282 5.07702 10.5938 4.86892C10.5196 4.80304 10.3954 4.78392 10.2221 4.81322C10.0614 4.84035 9.96902 4.89497 9.90624 4.98048C9.80537 5.11793 9.71279 5.53261 9.86908 5.68666C10.0213 5.8366 10.3623 5.75637 10.4637 5.68659ZM8.19659 4.86892C8.08244 5.6096 7.95386 6.33585 7.82492 7.06173C6.99708 7.07046 6.15186 7.10257 5.35339 7.04312C5.50419 6.33296 5.61235 5.58009 5.76222 4.86892H4.87023C4.55095 6.68046 4.26045 8.52094 3.90393 10.2952H4.81453C4.95733 9.38515 5.09096 8.46567 5.27907 7.60066C6.05546 7.58154 6.98597 7.54821 7.73206 7.61928C7.57822 8.51856 7.39235 9.38558 7.24891 10.2952H8.15951C8.45217 8.45694 8.76034 6.63436 9.12588 4.86892H8.19659ZM21.0747 6.42994C20.3662 6.14377 19.8091 6.62736 19.5509 7.08035C19.6095 6.87882 19.6336 6.6428 19.681 6.42994H18.9749C18.8022 7.76879 18.5478 9.02574 18.3059 10.2952H19.105C19.217 9.54172 19.2654 8.52592 19.5138 7.80508C19.7124 7.22906 20.232 6.73833 20.9819 7.00603C20.9923 6.79353 21.0531 6.63132 21.0747 6.42994ZM21.5206 9.38471C21.4469 9.19437 21.4279 8.8802 21.4463 8.64129C21.4876 8.10438 21.6833 7.45065 21.9853 7.15467C22.4019 6.7462 23.2246 6.81381 23.8808 7.04319C23.901 6.82203 23.9455 6.62476 23.9737 6.41139C22.8976 6.23562 21.8764 6.34501 21.335 6.91316C20.8049 7.46934 20.4575 8.74765 20.7031 9.55197C20.9905 10.4932 22.2796 10.5443 23.3233 10.1838C23.3695 9.99464 23.3939 9.78373 23.4348 9.5892C22.8644 9.8854 21.7741 10.0394 21.5206 9.38471ZM30.4963 6.44848C29.79 6.09535 29.202 6.6879 28.9725 7.04312C29.0379 6.86085 29.0416 6.61675 29.1025 6.42987H28.3964C28.206 7.7571 27.9765 9.04522 27.7089 10.2952H28.5266C28.5317 9.78287 28.6323 9.40391 28.7123 8.90156C28.8832 7.82875 29.1341 6.65232 30.3849 7.00596C30.4263 6.82456 30.4435 6.61877 30.4963 6.44848ZM9.64605 6.42994C9.6244 6.43304 9.62585 6.45931 9.62743 6.48564C9.45137 7.80241 9.21304 9.05705 8.95848 10.2952H9.75753C9.94953 8.96953 10.1695 7.67195 10.4451 6.42987L9.64605 6.42994ZM16.6704 6.35562C16.0931 6.40014 15.605 6.56624 15.2581 6.93171C14.8327 7.37987 14.4882 8.37078 14.5892 9.27323C14.7332 10.5606 16.3361 10.5144 17.6182 10.2024C17.6401 9.97639 17.6948 9.78323 17.7297 9.57051C17.2016 9.76815 16.2846 10.044 15.7412 9.70068C15.3311 9.44128 15.3287 8.78474 15.4625 8.21399C16.3242 8.18657 17.2198 8.19176 18.0827 8.21399C18.1374 7.80948 18.294 7.36847 18.157 6.96894C17.9763 6.44148 17.3291 6.30482 16.6704 6.35562ZM17.4323 7.76792H15.5553C15.6148 7.33643 16.003 6.86215 16.6147 6.83877C17.1903 6.81677 17.6025 7.05012 17.4323 7.76792ZM13.6414 6.42994C12.9651 6.17588 12.1409 6.47915 11.7835 6.76763C11.7848 6.78033 11.775 6.78206 11.7645 6.783C11.7705 6.77787 11.7772 6.77275 11.7835 6.76763C11.7834 6.76656 11.7833 6.7655 11.7831 6.76445C11.7891 6.64042 11.8328 6.55397 11.8388 6.42994H11.1513C10.8648 8.33622 10.525 10.1892 10.1664 12.0234H10.9655C11.0811 11.3091 11.1575 10.5554 11.3186 9.88641C11.5011 10.5901 12.6927 10.4556 13.1955 10.1838C14.2329 9.62268 15.0331 6.95263 13.6414 6.42994ZM13.0096 9.57051C12.5821 10.0233 11.5311 10.0165 11.4486 9.25454C11.4128 8.92306 11.5362 8.57549 11.5974 8.23253C11.6591 7.88539 11.7036 7.55232 11.7645 7.24761C12.1856 6.73343 13.423 6.6713 13.5486 7.52634C13.6574 8.26868 13.3636 9.19552 13.0096 9.57051ZM33.4695 4.75744C33.401 5.35792 33.3095 5.93538 33.1908 6.48564C31.2307 5.86518 30.0287 7.30735 30.0503 9.08736C30.0546 9.43161 30.1138 9.77298 30.329 10.0165C30.7002 10.436 31.7624 10.5365 32.2989 10.1837C32.4027 10.1154 32.5088 9.99118 32.5776 9.90503C32.6293 9.84016 32.7114 9.67023 32.7263 9.71916C32.698 9.9077 32.6559 10.0825 32.652 10.2952H33.3768C33.5165 8.29155 33.9483 6.58024 34.2688 4.75737H33.4696V4.75744H33.4695ZM31.6856 9.8678C31.1477 9.87934 30.8802 9.54641 30.8679 8.99442C30.8464 8.02768 31.2705 6.95364 32.1316 6.85732C32.5325 6.81251 32.8228 6.90573 33.1165 7.00603C32.8468 8.09197 32.9441 9.84081 31.6856 9.8678ZM24.7912 6.42994C24.7519 6.65073 24.6915 6.85053 24.6426 7.06173C25.1141 6.94347 26.5824 6.58096 26.7239 7.21037C26.7709 7.41948 26.6898 7.64165 26.631 7.80508C25.3033 7.67931 24.2211 7.89989 23.9364 8.84571C23.7458 9.47924 23.9578 10.1027 24.3639 10.2767C25.1459 10.6118 26.0972 10.2279 26.4266 9.70068C26.3924 9.88316 26.36 10.0677 26.3709 10.2952H27.0584C27.0658 9.63675 27.1616 9.10374 27.2628 8.5112C27.3491 8.00661 27.5116 7.50708 27.4859 7.06173C27.4267 6.04181 25.737 6.40259 24.7912 6.42994ZM26.092 9.5519C25.6803 9.95503 24.5243 10.0695 24.6426 9.1059C24.7407 8.30555 25.6122 8.13548 26.5565 8.251C26.4864 8.68884 26.4058 9.24473 26.092 9.5519Z" fill="white" />
  </g>
  <defs>
    <clipPath id="clip0">
      <rect width="36.7647" height="16" fill="white" transform="translate(0.666687)" />
    </clipPath>
  </defs>
</svg>
